<?xml version="1.0" encoding="UTF-8" standalone="no"?>
<svg width="523px" height="544px" viewBox="0 0 523 544" version="1.1" xmlns="http://www.w3.org/2000/svg" xmlns:xlink="http://www.w3.org/1999/xlink">
    <!-- Generator: Sketch 3.6.1 (26313) - http://www.bohemiancoding.com/sketch -->
    <title>plugin-icons</title>
    <desc>Created with Sketch.</desc>
    <defs>
        <linearGradient x1="110.700576%" y1="-34.8698417%" x2="0%" y2="115.912158%" id="linearGradient-1">
            <stop stop-color="#074A39" offset="0%"></stop>
            <stop stop-color="#10785C" offset="24.0648013%"></stop>
            <stop stop-color="#1CB48A" offset="100%"></stop>
        </linearGradient>
        <linearGradient x1="26.9006784%" y1="0%" x2="59.8530751%" y2="85.7488063%" id="linearGradient-2">
            <stop stop-color="#FBDA61" offset="0%"></stop>
            <stop stop-color="#F76B1C" offset="100%"></stop>
        </linearGradient>
    </defs>
    <g id="Page-1" stroke="none" stroke-width="1" fill="none" fill-rule="evenodd">
        <circle id="Oval-Color" stroke="#979797" fill="url(#linearGradient-1)" cx="261.5" cy="261.5" r="260.5"></circle>
        <g id="charge" transform="translate(138.000000, 162.000000)">
            <g id="Group" transform="translate(0.000000, 0.467773)" fill="#FFFFFF">
                <path d="M226.874936,0 C232.546768,0 237.402204,2.01952051 241.441245,6.05856152 C245.480286,10.0976025 247.499807,14.9530391 247.499807,20.6248711 L247.499807,177.374839 C247.499807,183.046671 245.480286,187.902107 241.441245,191.941148 C237.402204,195.980189 232.546768,197.99971 226.874936,197.99971 L20.6248711,197.99971 C14.9530391,197.99971 10.0976025,195.980189 6.05856152,191.941148 C2.01952051,187.902107 0,183.046671 0,177.374839 L0,20.6248711 C0,14.9530391 2.01952051,10.0976025 6.05856152,6.05856152 C10.0976025,2.01952051 14.9530391,6.41153797e-15 20.6248711,6.41153797e-15 L226.874936,6.41153797e-15 L226.874936,0 Z M20.6250967,16.5000322 C19.5078447,16.5000322 18.5410586,16.9082676 17.7247383,17.7247383 C16.908418,18.541209 16.5001826,19.5079951 16.5000322,20.6250967 L16.5000322,49.5000967 L231,49.5000967 L231,20.6250967 C231,19.5078447 230.591765,18.5410586 229.775294,17.7247383 C228.958823,16.908418 227.992037,16.5001826 226.874936,16.5000322 L20.6248711,16.5000322 L20.6250967,16.5000322 Z M226.874936,181.499903 C227.992188,181.499903 228.958974,181.091668 229.775294,180.275197 C230.591614,179.458727 230.99985,178.49194 231,177.374839 L231,98.9997422 L16.5000322,98.9997422 L16.5000322,177.374839 C16.5000322,178.492091 16.9082676,179.458877 17.7247383,180.275197 C18.541209,181.091518 19.5079951,181.499753 20.6250967,181.499903 L226.875161,181.499903 L226.874936,181.499903 Z M33.0000645,164.999871 L33.0000645,148.499839 L66.0001289,148.499839 L66.0001289,164.999871 L33.0000645,164.999871 L33.0000645,164.999871 Z M82.4999355,163.999871 L82.4999355,147.499839 L132.000032,147.499839 L132.000032,163.999871 L82.4999355,163.999871 L82.4999355,163.999871 Z" id="Shape"></path>
            </g>
            <g id="invalid-icon" transform="translate(184.000000, 206.000000)" fill="url(#linearGradient-2)">
                <g id="Shape">
                    <g id="Page-1">
                        <path d="M111.264468,6.4699765 C106.232265,-2.15665883 93.7677355,-2.15665883 88.7355315,6.4699765 L1.79608857,155.509022 C-3.27530265,164.202835 2.99569727,175.120878 13.060557,175.120878 L186.939443,175.120878 C197.004303,175.120878 203.275303,164.202835 198.203911,155.509022 L111.264468,6.4699765 L111.264468,6.4699765 L111.264468,6.4699765 L111.264468,6.4699765 L111.264468,6.4699765 L111.264468,6.4699765 L111.264468,6.4699765 L111.264468,6.4699765" id="Shape"></path>
                    </g>
                </g>
            </g>
        </g>
    </g>
</svg>